<?xml version="1.0" encoding="UTF-8"?>
<!DOCTYPE svg PUBLIC "-//W3C//DTD SVG 1.1//EN" "http://www.w3.org/Graphics/SVG/1.1/DTD/svg11.dtd">
<svg xmlns="http://www.w3.org/2000/svg" version="1.1" width="603px" height="132px" style="shape-rendering:geometricPrecision; text-rendering:geometricPrecision; image-rendering:optimizeQuality; fill-rule:evenodd; clip-rule:evenodd" xmlns:xlink="http://www.w3.org/1999/xlink">
<g><path style="opacity:0.999" fill="#ec216d" d="M 66.5,-0.5 C 68.1667,-0.5 69.8333,-0.5 71.5,-0.5C 71.5,0.166667 71.8333,0.5 72.5,0.5C 72.5246,3.17901 73.858,4.51234 76.5,4.5C 89.1132,15.4431 101.447,26.7764 113.5,38.5C 102.741,57.6911 91.7409,76.6911 80.5,95.5C 78.1667,95.5 75.8333,95.5 73.5,95.5C 73.1667,95.5 72.8333,95.5 72.5,95.5C 69.9164,93.5275 66.9164,92.5275 63.5,92.5C 60.4021,92.2444 57.4021,91.5778 54.5,90.5C 52.8984,88.9261 50.8984,88.2594 48.5,88.5C 43.1184,87.3731 37.7851,86.0397 32.5,84.5C 29.9164,82.5275 26.9164,81.5275 23.5,81.5C 15.4127,62.923 8.07939,43.923 1.5,24.5C 1.15684,22.5168 1.82351,21.1834 3.5,20.5C 11.483,24.8049 19.483,29.1382 27.5,33.5C 27.8212,35.0481 28.8212,35.7148 30.5,35.5C 32.4832,36.4706 34.4832,37.4706 36.5,38.5C 37.2186,40.7638 37.552,43.0971 37.5,45.5C 41.1157,64.9767 52.1157,70.81 70.5,63C 81.3658,51.7045 81.0325,40.7045 69.5,30C 59.191,24.6624 50.0243,26.1624 42,34.5C 33.6893,29.9327 25.5226,25.266 17.5,20.5C 17.0269,19.0937 16.0269,18.427 14.5,18.5C 10.7274,16.7788 7.06078,14.7788 3.5,12.5C 18.2389,8.35223 33.2389,5.35223 48.5,3.5C 54.2283,3.94657 59.5617,2.94657 64.5,0.5C 65.4916,0.67158 66.1583,0.338246 66.5,-0.5 Z"/></g>
<g><path style="opacity:1" fill="#ef6294" d="M 64.5,0.5 C 59.5617,2.94657 54.2283,3.94657 48.5,3.5C 53.5911,1.87113 58.9245,0.871133 64.5,0.5 Z"/></g>
<g><path style="opacity:1" fill="#f1739c" d="M 72.5,0.5 C 74.1667,1.5 75.5,2.83333 76.5,4.5C 73.858,4.51234 72.5246,3.17901 72.5,0.5 Z"/></g>
<g><path style="opacity:0.251" fill="#eea1c1" d="M 14.5,18.5 C 16.0269,18.427 17.0269,19.0937 17.5,20.5C 15.9731,20.573 14.9731,19.9063 14.5,18.5 Z"/></g>
<g><path style="opacity:0.725" fill="#f188ad" d="M -0.5,18.5 C 1.3797,18.2291 2.71304,18.8958 3.5,20.5C 1.82351,21.1834 1.15684,22.5168 1.5,24.5C 0.833333,23.1667 0.166667,21.8333 -0.5,20.5C -0.5,19.8333 -0.5,19.1667 -0.5,18.5 Z"/></g>
<g><path style="opacity:0.997" fill="#ed2b70" d="M 55.5,32.5 C 65.0466,32.258 70.7132,36.758 72.5,46C 69.6016,59.2818 61.935,63.2818 49.5,58C 40.8503,47.0953 42.8503,38.5953 55.5,32.5 Z"/></g>
<g><path style="opacity:0.765" fill="#f28fae" d="M 27.5,33.5 C 28.7095,33.9321 29.7095,34.5987 30.5,35.5C 28.8212,35.7148 27.8212,35.0481 27.5,33.5 Z"/></g>
<g><path style="opacity:0.749" fill="#f194b5" d="M 36.5,38.5 C 37.9931,39.3121 38.6598,40.6455 38.5,42.5C 38.4805,43.7261 38.1471,44.7261 37.5,45.5C 37.552,43.0971 37.2186,40.7638 36.5,38.5 Z"/></g>
<g><path style="opacity:0.997" fill="#ee3a77" d="M 118.5,41.5 C 121.996,42.7484 124.996,44.7484 127.5,47.5C 116.559,67.2135 105.226,86.7135 93.5,106C 90.5966,105.723 87.93,104.556 85.5,102.5C 84.4173,101.635 84.2506,100.635 85,99.5C 96.4565,80.2431 107.623,60.9097 118.5,41.5 Z"/></g>
<g><path style="opacity:0.553" fill="#ef80ac" d="M 314.5,110.5 C 314.5,89.1667 314.5,67.8333 314.5,46.5C 311.167,46.5 307.833,46.5 304.5,46.5C 304.5,67.8333 304.5,89.1667 304.5,110.5C 303.503,89.0064 303.169,67.3398 303.5,45.5C 307.5,45.5 311.5,45.5 315.5,45.5C 315.831,67.3398 315.497,89.0064 314.5,110.5 Z"/></g>
<g><path style="opacity:1" fill="#ec0968" d="M 314.5,110.5 C 311.167,110.5 307.833,110.5 304.5,110.5C 304.5,89.1667 304.5,67.8333 304.5,46.5C 307.833,46.5 311.167,46.5 314.5,46.5C 314.5,67.8333 314.5,89.1667 314.5,110.5 Z"/></g>
<g><path style="opacity:0.99" fill="#f16f9d" d="M 372.5,45.5 C 372.334,52.175 372.5,58.8417 373,65.5C 373.383,64.944 373.883,64.6107 374.5,64.5C 374.179,66.0481 373.179,66.7148 371.5,66.5C 371.5,59.8333 371.5,53.1667 371.5,46.5C 368.5,46.5 365.5,46.5 362.5,46.5C 362.5,67.5 362.5,88.5 362.5,109.5C 365.5,109.5 368.5,109.5 371.5,109.5C 371.281,108.325 371.614,107.325 372.5,106.5C 373.107,106.624 373.44,106.957 373.5,107.5C 372.596,108.209 372.263,109.209 372.5,110.5C 368.563,110.793 364.73,110.46 361,109.5C 360.333,88.5 360.333,67.5 361,46.5C 364.73,45.5399 368.563,45.2065 372.5,45.5 Z"/></g>
<g><path style="opacity:1" fill="#ed256e" d="M 374.5,64.5 C 375.167,64.5 375.5,64.1667 375.5,63.5C 380.383,61.9905 385.05,62.3238 389.5,64.5C 389.427,66.0269 390.094,67.0269 391.5,67.5C 392.66,79.9933 392.827,92.6599 392,105.5C 391.07,107.552 389.57,109.052 387.5,110C 383.08,110.768 378.747,110.602 374.5,109.5C 374.167,108.833 373.833,108.167 373.5,107.5C 373.44,106.957 373.107,106.624 372.5,106.5C 371.614,107.325 371.281,108.325 371.5,109.5C 368.5,109.5 365.5,109.5 362.5,109.5C 362.5,88.5 362.5,67.5 362.5,46.5C 365.5,46.5 368.5,46.5 371.5,46.5C 371.5,53.1667 371.5,59.8333 371.5,66.5C 373.179,66.7148 374.179,66.0481 374.5,64.5 Z M 380.5,72.5 C 380.806,82.2496 380.473,91.9162 379.5,101.5C 377.533,101.739 375.699,101.406 374,100.5C 373.5,91.1726 373.334,81.8393 373.5,72.5C 375.833,72.5 378.167,72.5 380.5,72.5 Z"/></g>
<g><path style="opacity:0.118" fill="#ecc2d6" d="M 372.5,45.5 C 372.853,51.7355 373.853,57.7355 375.5,63.5C 375.5,64.1667 375.167,64.5 374.5,64.5C 373.883,64.6107 373.383,64.944 373,65.5C 372.5,58.8417 372.334,52.175 372.5,45.5 Z"/></g>
<g><path style="opacity:0.529" fill="#ed5c99" d="M 487.5,45.5 C 487.5,45.8333 487.5,46.1667 487.5,46.5C 484.167,46.5 480.833,46.5 477.5,46.5C 477.5,67.8333 477.5,89.1667 477.5,110.5C 476.503,89.0064 476.169,67.3398 476.5,45.5C 480.167,45.5 483.833,45.5 487.5,45.5 Z"/></g>
<g><path style="opacity:1" fill="#ec0968" d="M 487.5,46.5 C 487.5,67.8333 487.5,89.1667 487.5,110.5C 484.167,110.5 480.833,110.5 477.5,110.5C 477.5,89.1667 477.5,67.8333 477.5,46.5C 480.833,46.5 484.167,46.5 487.5,46.5 Z"/></g>
<g><path style="opacity:0.138" fill="#ecc5d8" d="M 487.5,45.5 C 488.167,58.1667 488.833,70.8333 489.5,83.5C 488.167,84.8333 488.167,86.1667 489.5,87.5C 488.833,95.1667 488.167,102.833 487.5,110.5C 487.5,89.1667 487.5,67.8333 487.5,46.5C 487.5,46.1667 487.5,45.8333 487.5,45.5 Z"/></g>
<g><path style="opacity:1" fill="#f05584" d="M 513.5,45.5 C 517.833,45.5 522.167,45.5 526.5,45.5C 526.665,48.8499 526.498,52.1832 526,55.5C 522,56.8333 518,56.8333 514,55.5C 513.502,52.1832 513.335,48.8499 513.5,45.5 Z"/></g>
<g><path style="opacity:0.156" fill="#ecbfd5" d="M 233.5,49.5 C 229.351,48.9197 225.684,49.5864 222.5,51.5C 221.596,50.791 221.263,49.791 221.5,48.5C 225.702,48.1832 229.702,48.5166 233.5,49.5 Z"/></g>
<g><path style="opacity:0.998" fill="#ee3876" d="M 222.5,51.5 C 225.684,49.5864 229.351,48.9197 233.5,49.5C 236.326,57.926 238.659,66.5927 240.5,75.5C 241.032,78.4596 241.699,78.7929 242.5,76.5C 242.56,73.6592 243.226,70.9925 244.5,68.5C 246.342,64.8414 247.342,60.8414 247.5,56.5C 247.466,53.8015 248.133,51.3015 249.5,49C 253.691,48.0784 257.691,48.4118 261.5,50C 257.259,62.4586 253.092,74.9586 249,87.5C 248.5,95.1594 248.334,102.826 248.5,110.5C 244.167,110.5 239.833,110.5 235.5,110.5C 235.666,103.492 235.5,96.4921 235,89.5C 230.532,76.9058 226.365,64.2391 222.5,51.5 Z"/></g>
<g><path style="opacity:0.102" fill="#edbbd2" d="M 131.5,54.5 C 136.015,53.1876 140.682,53.1876 145.5,54.5C 145.376,55.1067 145.043,55.44 144.5,55.5C 140.366,54.5151 136.032,54.1818 131.5,54.5 Z"/></g>
<g><path style="opacity:0.997" fill="#ee3474" d="M 131.5,54.5 C 136.032,54.1818 140.366,54.5151 144.5,55.5C 132.665,76.5047 120.831,97.5047 109,118.5C 104.493,114.82 102.16,110.154 102,104.5C 111.608,87.6054 121.441,70.9388 131.5,54.5 Z"/></g>
<g><path style="opacity:0.455" fill="#ec7cac" d="M 498.5,63.5 C 502.298,62.5166 506.298,62.1832 510.5,62.5C 510.737,63.791 510.404,64.791 509.5,65.5C 506.316,63.5864 502.649,62.9197 498.5,63.5 Z"/></g>
<g><path style="opacity:0.998" fill="#ec1d6c" d="M 293.5,64.5 C 293.427,66.0269 294.094,67.0269 295.5,67.5C 297.143,80.0514 297.31,92.7181 296,105.5C 295.623,106.942 294.79,107.942 293.5,108.5C 285.534,109.365 277.534,109.698 269.5,109.5C 267.227,109.043 265.894,107.71 265.5,105.5C 265.5,92.8333 265.5,80.1667 265.5,67.5C 267.264,66.674 268.598,65.3407 269.5,63.5C 276.42,62.3722 283.42,62.2055 290.5,63C 291.737,63.2321 292.737,63.7321 293.5,64.5 Z M 277.5,71.5 C 280.513,71.1072 283.18,71.7739 285.5,73.5C 285.666,82.1731 285.5,90.8397 285,99.5C 282.544,101.321 279.711,101.988 276.5,101.5C 276.193,91.4176 276.526,81.4176 277.5,71.5 Z"/></g>
<g><path style="opacity:0.999" fill="#ec206e" d="M 328.5,62.5 C 334.842,62.3338 341.175,62.5005 347.5,63C 350.893,63.3935 353.06,65.2268 354,68.5C 354.667,80.8333 354.667,93.1667 354,105.5C 352.833,107.333 351.333,108.833 349.5,110C 342.167,110.667 334.833,110.667 327.5,110C 325.333,109.167 323.833,107.667 323,105.5C 322.333,92.8333 322.333,80.1667 323,67.5C 324.107,64.887 325.94,63.2203 328.5,62.5 Z M 341.5,71.5 C 342.474,81.4176 342.807,91.4176 342.5,101.5C 342.167,101.5 341.833,101.5 341.5,101.5C 338.721,101.721 336.054,101.388 333.5,100.5C 333.5,91.1667 333.5,81.8333 333.5,72.5C 336.096,71.7347 338.763,71.4013 341.5,71.5 Z"/></g>
<g><path style="opacity:0.999" fill="#ed3172" d="M 405.5,62.5 C 411.842,62.3338 418.175,62.5005 424.5,63C 426.848,63.3459 428.681,64.5125 430,66.5C 431.606,78.7624 431.939,91.0957 431,103.5C 430.261,106.573 428.428,108.74 425.5,110C 418.5,110.667 411.5,110.667 404.5,110C 402.714,109.215 401.214,108.049 400,106.5C 398.419,94.5578 398.085,82.5578 399,70.5C 399.612,66.4029 401.779,63.7363 405.5,62.5 Z M 418.5,71.5 C 419.833,81.5 419.833,91.5 418.5,101.5C 415.833,101.5 413.167,101.5 410.5,101.5C 410.334,91.8276 410.5,82.1609 411,72.5C 413.381,71.565 415.881,71.2317 418.5,71.5 Z"/></g>
<g><path style="opacity:1" fill="#ed2a70" d="M 466.5,64.5 C 466.427,66.0269 467.094,67.0269 468.5,67.5C 469.29,68.6085 469.79,69.9419 470,71.5C 470.667,81.5 470.667,91.5 470,101.5C 469.861,104.445 468.694,106.779 466.5,108.5C 458.534,109.365 450.534,109.698 442.5,109.5C 440.227,109.043 438.894,107.71 438.5,105.5C 438.625,99.7969 438.292,94.1302 437.5,88.5C 437.175,81.3134 437.509,74.3134 438.5,67.5C 440.264,66.674 441.598,65.3407 442.5,63.5C 449.42,62.3722 456.42,62.2055 463.5,63C 464.737,63.2321 465.737,63.7321 466.5,64.5 Z M 450.5,71.5 C 453.513,71.1072 456.18,71.7739 458.5,73.5C 458.666,82.1731 458.5,90.8397 458,99.5C 455.544,101.321 452.711,101.988 449.5,101.5C 449.193,91.4176 449.526,81.4176 450.5,71.5 Z"/></g>
<g><path style="opacity:0.998" fill="#ed3374" d="M 498.5,63.5 C 502.649,62.9197 506.316,63.5864 509.5,65.5C 506.877,72.3845 503.877,79.0512 500.5,85.5C 504.126,93.7475 507.46,102.081 510.5,110.5C 506.233,110.797 502.066,110.464 498,109.5C 494.869,102.246 492.036,94.9126 489.5,87.5C 488.167,86.1667 488.167,84.8333 489.5,83.5C 491.989,76.5277 494.989,69.861 498.5,63.5 Z"/></g>
<g><path style="opacity:0.994" fill="#f1749f" d="M 525.5,63.5 C 522.167,63.5 518.833,63.5 515.5,63.5C 515.5,78.8333 515.5,94.1667 515.5,109.5C 518.833,109.5 522.167,109.5 525.5,109.5C 521.702,110.483 517.702,110.817 513.5,110.5C 513.333,94.8298 513.5,79.1631 514,63.5C 517.934,62.179 521.767,62.179 525.5,63.5 Z"/></g>
<g><path style="opacity:0.984" fill="#ec0868" d="M 525.5,63.5 C 525.5,78.8333 525.5,94.1667 525.5,109.5C 522.167,109.5 518.833,109.5 515.5,109.5C 515.5,94.1667 515.5,78.8333 515.5,63.5C 518.833,63.5 522.167,63.5 525.5,63.5 Z"/></g>
<g><path style="opacity:0.522" fill="#ec659f" d="M 545.5,64.5 C 545.565,64.9382 545.399,65.2716 545,65.5C 541.851,63.6375 538.351,62.9709 534.5,63.5C 534.5,79.1667 534.5,94.8333 534.5,110.5C 533.504,94.6754 533.17,78.6754 533.5,62.5C 537.971,61.9106 541.971,62.5772 545.5,64.5 Z"/></g>
<g><path style="opacity:1" fill="#ed246e" d="M 563.5,67.5 C 563.5,81.5 563.5,95.5 563.5,109.5C 560.167,109.5 556.833,109.5 553.5,109.5C 553.829,96.9887 553.495,84.6554 552.5,72.5C 550.167,72.5 547.833,72.5 545.5,72.5C 545.5,85.1667 545.5,97.8333 545.5,110.5C 541.833,110.5 538.167,110.5 534.5,110.5C 534.5,94.8333 534.5,79.1667 534.5,63.5C 538.351,62.9709 541.851,63.6375 545,65.5C 545.399,65.2716 545.565,64.9382 545.5,64.5C 550.701,62.0169 556.035,61.8502 561.5,64C 562.823,64.8159 563.489,65.9826 563.5,67.5 Z"/></g>
<g><path style="opacity:0.999" fill="#ed3072" d="M 591.5,63.5 C 594.833,63.5 598.167,63.5 601.5,63.5C 601.5,81.8333 601.5,100.167 601.5,118.5C 600.405,121.735 598.072,123.568 594.5,124C 587.508,124.5 580.508,124.666 573.5,124.5C 573.5,121.167 573.5,117.833 573.5,114.5C 579.167,114.5 584.833,114.5 590.5,114.5C 591.638,111.696 591.805,108.696 591,105.5C 590.283,106.044 589.783,106.711 589.5,107.5C 584.665,110.054 579.665,110.054 574.5,107.5C 573.416,106.335 572.583,105.002 572,103.5C 571.333,91.8333 571.333,80.1667 572,68.5C 572.513,67.4734 573.013,66.4734 573.5,65.5C 575.027,65.573 576.027,64.9063 576.5,63.5C 581.752,62.4158 586.752,62.4158 591.5,63.5 Z M 583.5,72.5 C 585.833,72.5 588.167,72.5 590.5,72.5C 590.5,81.5 590.5,90.5 590.5,99.5C 588.167,99.5 585.833,99.5 583.5,99.5C 583.5,90.5 583.5,81.5 583.5,72.5 Z"/></g>
<g><path style="opacity:0.545" fill="#ec5d9a" d="M 591.5,63.5 C 594.962,62.5184 598.629,62.185 602.5,62.5C 602.5,81.1667 602.5,99.8333 602.5,118.5C 602.167,118.5 601.833,118.5 601.5,118.5C 601.5,100.167 601.5,81.8333 601.5,63.5C 598.167,63.5 594.833,63.5 591.5,63.5 Z"/></g>
<g><path style="opacity:0.616" fill="#f08ab1" d="M 576.5,63.5 C 576.027,64.9063 575.027,65.573 573.5,65.5C 573.973,64.0937 574.973,63.427 576.5,63.5 Z"/></g>
<g><path style="opacity:0.999" fill="#ec206d" d="M 169.5,131.5 C 168.167,131.5 166.833,131.5 165.5,131.5C 165.5,130.833 165.167,130.5 164.5,130.5C 162.898,128.926 160.898,128.259 158.5,128.5C 144.642,124.77 130.975,120.436 117.5,115.5C 124.022,103.109 131.022,91.1089 138.5,79.5C 139.906,79.0269 140.573,78.0269 140.5,76.5C 142.471,71.8949 144.971,67.5615 148,63.5C 161,75.1667 174,86.8333 187,98.5C 181.497,109.549 175.663,120.549 169.5,131.5 Z"/></g>
<g><path style="opacity:1" fill="#f06d9b" d="M 247.5,56.5 C 247.342,60.8414 246.342,64.8414 244.5,68.5C 244.755,64.1997 245.755,60.1997 247.5,56.5 Z"/></g>
<g><path style="opacity:1" fill="#f0719d" d="M 269.5,63.5 C 268.598,65.3407 267.264,66.674 265.5,67.5C 265.833,65.1667 267.167,63.8333 269.5,63.5 Z"/></g>
<g><path style="opacity:0.4" fill="#ef8fb5" d="M 293.5,64.5 C 294.906,64.9731 295.573,65.9731 295.5,67.5C 294.094,67.0269 293.427,66.0269 293.5,64.5 Z"/></g>
<g><path style="opacity:0.298" fill="#eea0c0" d="M 389.5,64.5 C 390.906,64.9731 391.573,65.9731 391.5,67.5C 390.094,67.0269 389.427,66.0269 389.5,64.5 Z"/></g>
<g><path style="opacity:1" fill="#f0739e" d="M 442.5,63.5 C 441.598,65.3407 440.264,66.674 438.5,67.5C 438.833,65.1667 440.167,63.8333 442.5,63.5 Z"/></g>
<g><path style="opacity:0.424" fill="#ef8cb4" d="M 466.5,64.5 C 467.906,64.9731 468.573,65.9731 468.5,67.5C 467.094,67.0269 466.427,66.0269 466.5,64.5 Z"/></g>
<g><path style="opacity:0.557" fill="#ee75a6" d="M 276.5,71.5 C 278.966,70.3659 281.633,70.1993 284.5,71C 285.252,71.6708 285.586,72.5041 285.5,73.5C 283.18,71.7739 280.513,71.1072 277.5,71.5C 277.167,71.5 276.833,71.5 276.5,71.5 Z"/></g>
<g><path style="opacity:0.553" fill="#ed69a0" d="M 342.5,71.5 C 342.167,71.5 341.833,71.5 341.5,71.5C 338.763,71.4013 336.096,71.7347 333.5,72.5C 333.611,71.8826 333.944,71.3826 334.5,71C 337.367,70.1993 340.034,70.3659 342.5,71.5 Z"/></g>
<g><path style="opacity:0.563" fill="#ee74a6" d="M 449.5,71.5 C 451.966,70.3659 454.633,70.1993 457.5,71C 458.252,71.6708 458.586,72.5041 458.5,73.5C 456.18,71.7739 453.513,71.1072 450.5,71.5C 450.167,71.5 449.833,71.5 449.5,71.5 Z"/></g>
<g><path style="opacity:0.989" fill="#f08bb0" d="M 563.5,67.5 C 564.29,68.6085 564.79,69.9419 565,71.5C 565.667,84.1667 565.667,96.8333 565,109.5C 560.934,110.464 556.767,110.797 552.5,110.5C 552.5,97.8333 552.5,85.1667 552.5,72.5C 553.495,84.6554 553.829,96.9887 553.5,109.5C 556.833,109.5 560.167,109.5 563.5,109.5C 563.5,95.5 563.5,81.5 563.5,67.5 Z"/></g>
<g><path style="opacity:0.078" fill="#edcbdc" d="M 276.5,71.5 C 276.833,71.5 277.167,71.5 277.5,71.5C 276.526,81.4176 276.193,91.4176 276.5,101.5C 275.167,91.5 275.167,81.5 276.5,71.5 Z"/></g>
<g><path style="opacity:0.165" fill="#ecb7cf" d="M 341.5,71.5 C 341.833,71.5 342.167,71.5 342.5,71.5C 343.833,81.5 343.833,91.5 342.5,101.5C 342.807,91.4176 342.474,81.4176 341.5,71.5 Z"/></g>
<g><path style="opacity:0.42" fill="#ed86b2" d="M 418.5,71.5 C 419.828,76.1194 420.494,81.1194 420.5,86.5C 420.494,91.8806 419.828,96.8806 418.5,101.5C 419.833,91.5 419.833,81.5 418.5,71.5 Z"/></g>
<g><path style="opacity:0.078" fill="#edcadb" d="M 449.5,71.5 C 449.833,71.5 450.167,71.5 450.5,71.5C 449.526,81.4176 449.193,91.4176 449.5,101.5C 448.167,91.5 448.167,81.5 449.5,71.5 Z"/></g>
<g><path style="opacity:0.157" fill="#ecc3d7" d="M 240.5,75.5 C 241.167,75.8333 241.833,76.1667 242.5,76.5C 241.699,78.7929 241.032,78.4596 240.5,75.5 Z"/></g>
<g><path style="opacity:0.251" fill="#eea0c0" d="M 140.5,76.5 C 140.573,78.0269 139.906,79.0269 138.5,79.5C 138.427,77.9731 139.094,76.9731 140.5,76.5 Z"/></g>
<g><path style="opacity:0.686" fill="#f08bb1" d="M 23.5,81.5 C 26.9164,81.5275 29.9164,82.5275 32.5,84.5C 29.2154,84.0719 26.2154,83.0719 23.5,81.5 Z"/></g>
<g><path style="opacity:0.509" fill="#ec96bc" d="M 380.5,72.5 C 381.166,77.1547 381.499,81.9881 381.5,87C 381.494,92.2157 380.827,97.049 379.5,101.5C 380.473,91.9162 380.806,82.2496 380.5,72.5 Z"/></g>
<g><path style="opacity:0.639" fill="#ef93b7" d="M 48.5,88.5 C 50.8984,88.2594 52.8984,88.9261 54.5,90.5C 52.2143,90.405 50.2143,89.7384 48.5,88.5 Z"/></g>
<g><path style="opacity:0.71" fill="#f085ad" d="M 63.5,92.5 C 66.9164,92.5275 69.9164,93.5275 72.5,95.5C 69.2154,95.0719 66.2154,94.0719 63.5,92.5 Z"/></g>
<g><path style="opacity:0.506" fill="#ee73a5" d="M 265.5,67.5 C 265.5,80.1667 265.5,92.8333 265.5,105.5C 264.7,100.83 264.034,95.9964 263.5,91C 264.089,83.0119 264.756,75.1786 265.5,67.5 Z"/></g>
<g><path style="opacity:0.485" fill="#ef8db5" d="M 437.5,88.5 C 438.292,94.1302 438.625,99.7969 438.5,105.5C 437.7,100.83 437.034,95.9964 436.5,91C 436.528,89.9302 436.861,89.0968 437.5,88.5 Z"/></g>
<g><path style="opacity:0.765" fill="#f28aac" d="M 73.5,95.5 C 75.8333,95.5 78.1667,95.5 80.5,95.5C 80.2172,96.2891 79.7172,96.9558 79,97.5C 77.0517,96.8906 75.2184,96.224 73.5,95.5 Z"/></g>
<g><path style="opacity:0.435" fill="#ed74a5" d="M 333.5,100.5 C 336.054,101.388 338.721,101.721 341.5,101.5C 340.378,102.156 339.045,102.489 337.5,102.5C 335.667,102.415 334.334,101.748 333.5,100.5 Z"/></g>
<g><path style="opacity:0.078" fill="#edcedd" d="M 373.5,107.5 C 373.833,108.167 374.167,108.833 374.5,109.5C 373.833,109.833 373.167,110.167 372.5,110.5C 372.263,109.209 372.596,108.209 373.5,107.5 Z"/></g>
<g><path style="opacity:0.685" fill="#ef5690" d="M 293.5,108.5 C 293.082,109.222 292.416,109.722 291.5,110C 283.988,110.822 276.655,110.655 269.5,109.5C 277.534,109.698 285.534,109.365 293.5,108.5 Z"/></g>
<g><path style="opacity:0.685" fill="#ef5690" d="M 466.5,108.5 C 466.082,109.222 465.416,109.722 464.5,110C 456.988,110.822 449.655,110.655 442.5,109.5C 450.534,109.698 458.534,109.365 466.5,108.5 Z"/></g>
<g><path style="opacity:0.212" fill="#ec9dc0" d="M 590.5,114.5 C 590.802,111.941 590.468,109.607 589.5,107.5C 589.783,106.711 590.283,106.044 591,105.5C 591.805,108.696 591.638,111.696 590.5,114.5 Z"/></g>
<g><path style="opacity:0.624" fill="#ef94b8" d="M 158.5,128.5 C 160.898,128.259 162.898,128.926 164.5,130.5C 162.214,130.405 160.214,129.738 158.5,128.5 Z"/></g>
</svg>
